<?xml version="1.0" encoding="UTF-8" standalone="no"?>
<!-- Created with Inkscape (http://www.inkscape.org/) -->

<svg
   width="48"
   height="48"
   viewBox="0 0 12.7 12.7"
   version="1.1"
   id="svg1"
   xmlns="http://www.w3.org/2000/svg"
   xmlns:svg="http://www.w3.org/2000/svg">
  <defs
     id="defs1" />
  <path
     id="rect1"
     style="fill:#000000;stroke-width:3.06945"
     d="M 1.4004313 0 C 0.62445778 -1.5666465e-16 8.669464e-18 0.62445778 0 1.4004313 L 0 11.299569 C -1.5666465e-16 12.075542 0.62445778 12.7 1.4004313 12.7 L 11.299569 12.7 C 12.075542 12.7 12.7 12.075542 12.7 11.299569 L 12.7 1.4004313 C 12.7 0.62445778 12.075542 8.669464e-18 11.299569 0 L 1.4004313 0 z M 3.5295003 2.1166667 C 3.8188088 2.1166667 4.107778 2.2272726 4.3294515 2.4489461 L 6.35 4.4694946 L 8.3705485 2.4489461 C 8.8138946 2.0055993 9.5276207 2.0055991 9.9709676 2.4489461 L 10.251054 2.7290324 C 10.6944 3.1723796 10.694401 3.8861045 10.251054 4.3294515 L 8.2305054 6.35 L 10.251054 8.3705485 C 10.6944 8.8138959 10.694401 9.5276216 10.251054 9.9709676 L 9.9709676 10.251054 C 9.5276207 10.6944 8.8138955 10.6944 8.3705485 10.251054 L 6.35 8.2305054 L 4.3294515 10.251054 C 3.8861045 10.6944 3.1723792 10.6944 2.7290324 10.251054 L 2.4489461 9.9709676 C 2.0055992 9.5276207 2.0055992 8.8138959 2.4489461 8.3705485 L 4.4694946 6.35 L 2.4489461 4.3294515 C 2.0055992 3.8861044 2.0055992 3.1723793 2.4489461 2.7290324 L 2.7290324 2.4489461 C 2.9507054 2.2272727 3.2401919 2.1166666 3.5295003 2.1166667 z " />
</svg>
