<?xml version="1.0" encoding="UTF-8" standalone="no"?>
<!-- Created with Inkscape (http://www.inkscape.org/) -->

<svg
   width="240"
   height="240"
   viewBox="0 0 63.5 63.5"
   version="1.1"
   id="svg1"
   xml:space="preserve"
   xmlns="http://www.w3.org/2000/svg"
   xmlns:svg="http://www.w3.org/2000/svg"><defs
     id="defs1" /><path
     id="path1"
     style="fill:#ffc404;fill-opacity:1;stroke-width:0"
     d="M 36.238098 2.8804443 C 35.73707 2.8804443 35.333761 3.2837533 35.333761 3.7847819 L 35.333761 9.5591064 C 35.333761 10.060135 35.73707 10.463444 36.238098 10.463444 C 36.739127 10.463444 37.142436 10.060135 37.142436 9.5591064 L 37.142436 3.7847819 C 37.142436 3.2837533 36.739127 2.8804443 36.238098 2.8804443 z M 22.686471 5.8812948 C 22.54075 5.8852308 22.394185 5.9244487 22.25859 6.0027344 C 21.824686 6.2532487 21.676829 6.8044144 21.927344 7.2383179 L 24.814506 12.239046 C 25.06502 12.67295 25.616186 12.82029 26.05009 12.569775 C 26.483993 12.319261 26.631333 11.768612 26.380819 11.334709 L 23.493656 6.3339803 C 23.321428 6.0356716 23.007056 5.8726354 22.686471 5.8812948 z M 49.599556 6.8114705 C 49.278971 6.8028112 48.964599 6.9658474 48.792371 7.2641561 L 45.905208 12.264884 C 45.654694 12.698788 45.802551 13.249437 46.236454 13.499951 C 46.670358 13.750465 47.221007 13.603126 47.471521 13.169222 L 50.358683 8.1684937 C 50.609198 7.7345902 50.461858 7.1834245 50.027954 6.9329102 C 49.892359 6.8546244 49.745277 6.8154066 49.599556 6.8114705 z M 36.722306 13.592969 C 27.015341 13.592969 19.131133 19.871982 19.146118 29.524813 L 19.147152 29.52998 C 18.995197 40.661893 29.323258 41.907084 29.408541 54.520186 C 29.408541 54.520186 44.024076 54.529486 44.037105 54.520186 C 44.122385 41.907814 54.447405 40.665132 54.297978 29.533081 C 54.298549 29.530181 54.298907 29.527713 54.299528 29.524813 C 54.314508 19.871982 46.430305 13.592969 36.72334 13.592969 L 36.722306 13.592969 z M 11.497489 16.963306 C 11.176904 16.954646 10.862532 17.117683 10.690304 17.415991 C 10.439789 17.849895 10.587646 18.400544 11.021549 18.651058 L 16.022278 21.53822 C 16.456181 21.788735 17.00683 21.641395 17.257345 21.207491 C 17.507859 20.773588 17.360519 20.222422 16.926615 19.971908 L 11.925887 17.084745 C 11.790292 17.00646 11.64321 16.967242 11.497489 16.963306 z M 39.966036 24.103438 L 39.656494 28.569316 L 44.083614 29.229224 L 40.399601 31.771187 L 42.643392 35.644336 L 38.358899 34.348808 L 36.730058 38.518062 L 35.071761 34.360693 L 30.79657 35.686711 L 33.012972 31.798059 L 29.310356 29.28245 L 33.732825 28.590503 L 33.391243 24.127209 L 36.689233 27.153381 L 39.966036 24.103438 z M 39.24825 25.627893 L 36.70887 27.99209 L 34.152437 25.646497 L 34.417021 29.105717 L 30.989323 29.642118 L 33.858915 31.59187 L 32.141191 34.606156 L 35.454683 33.578312 L 36.740393 36.800854 L 38.002848 33.56901 L 41.324093 34.573083 L 39.584147 31.5712 L 42.439787 29.600777 L 39.008472 29.089181 L 39.24825 25.627893 z M 8.3529785 30.708203 C 7.8519499 30.708203 7.448641 31.111512 7.448641 31.612541 C 7.448641 32.113569 7.8519499 32.516878 8.3529785 32.516878 L 14.12782 32.516878 C 14.628848 32.516878 15.032157 32.113569 15.032157 31.612541 C 15.032157 31.111512 14.628848 30.708203 14.12782 30.708203 L 8.3529785 30.708203 z M 17.415991 41.167513 C 17.27027 41.171449 17.123188 41.210667 16.987594 41.288953 L 11.986865 44.176115 C 11.552962 44.426629 11.405105 44.977795 11.655619 45.411698 C 11.906134 45.845602 12.457299 45.993459 12.891203 45.742944 L 17.891931 42.855265 C 18.325835 42.604751 18.473691 42.054102 18.223177 41.620199 C 18.050948 41.32189 17.736577 41.158854 17.415991 41.167513 z M 25.530741 48.836812 C 25.210156 48.828153 24.895784 48.991189 24.723556 49.289498 L 21.836393 54.290226 C 21.585879 54.72413 21.733219 55.275295 22.167122 55.52581 C 22.601026 55.776324 23.152192 55.628467 23.402706 55.194564 L 26.289868 50.193835 C 26.540382 49.759932 26.393042 49.208766 25.959139 48.958252 C 25.823544 48.879966 25.676462 48.840748 25.530741 48.836812 z M 29.679325 55.408504 L 29.679325 57.38151 L 43.856755 57.38151 L 43.856755 55.408504 L 29.679325 55.408504 z M 30.292725 58.354061 L 30.292725 60.120361 L 34.230469 60.120361 A 3.0554542 1.1723565 0 0 0 37.246305 61.116166 A 3.0554542 1.1723565 0 0 0 40.262142 60.120361 L 42.984973 60.120361 L 42.984973 58.354061 L 30.292725 58.354061 z " /></svg>
