<?xml version="1.0" encoding="UTF-8" standalone="no"?>
<!-- Created with Inkscape (http://www.inkscape.org/) -->

<svg
   width="48"
   height="48"
   viewBox="0 0 12.7 12.7"
   version="1.1"
   id="svg1"
   xmlns="http://www.w3.org/2000/svg"
   xmlns:svg="http://www.w3.org/2000/svg">
  <defs
     id="defs1" />
  <path
     id="rect1"
     style="fill:#000000;stroke-width:2.43899"
     d="M 0.57154134 0 C 0.25486622 0 0 0.25486622 0 0.57154134 L 0 2.074292 L 0 10.625708 L 0 12.128459 C 0 12.168043 0.0037792765 12.206419 0.011368815 12.243697 C 0.018958354 12.280975 0.030534131 12.316967 0.044958496 12.351184 C 0.059382863 12.385401 0.07664721 12.417935 0.097151693 12.448336 C 0.11765618 12.478736 0.14108498 12.507255 0.16691488 12.533085 C 0.19274476 12.558915 0.22126365 12.582344 0.25166423 12.602848 C 0.2820648 12.623353 0.31459935 12.640617 0.34881592 12.655042 C 0.38303247 12.669465 0.41902506 12.681042 0.4563029 12.688631 C 0.49358073 12.696221 0.53195695 12.7 0.57154134 12.7 L 2.074292 12.7 L 5.7784587 12.7 C 6.0951337 12.7 6.35 12.445133 6.35 12.128459 L 6.35 10.625708 C 6.35 10.309033 6.0951337 10.054167 5.7784587 10.054167 L 2.6458333 10.054167 L 2.6458333 2.6458333 L 5.7784587 2.6458333 C 6.0951337 2.6458333 6.35 2.3909671 6.35 2.074292 L 6.35 0.57154134 C 6.35 0.25486622 6.0951337 0 5.7784587 0 L 0.57154134 0 z M 7.3886963 2.9109334 C 7.3240934 2.908823 7.2718522 2.916952 7.235734 2.9378052 C 7.0124062 3.0667455 6.9035359 3.9524453 6.8497111 4.7625 L 5.3340413 4.7625 C 5.0173663 4.7625 4.7625 5.0173663 4.7625 5.3340413 L 4.7625 6.836792 C 4.7625 7.1534671 5.0173663 7.4083333 5.3340413 7.4083333 L 6.8497111 7.4083333 C 6.9035359 8.2183881 7.0124062 9.1040877 7.235734 9.2330282 C 7.6209943 9.4554616 9.7944806 8.2591522 10.17974 8.0367188 C 10.565001 7.8142852 12.687598 6.5302837 12.687598 6.0854167 C 12.687598 5.6405496 10.565001 4.3565481 10.17974 4.1341146 C 9.8305987 3.9325342 8.013191 2.931334 7.3886963 2.9109334 z " />
</svg>
